<?xml version="1.0" encoding="UTF-8"?> <svg xmlns="http://www.w3.org/2000/svg" viewBox="0 0 276.9 75.13"><defs><style>.cls-1{fill:#00adee;}.cls-1,.cls-2{fill-rule:evenodd;}.cls-2,.cls-4{fill:#2e3191;}.cls-3{fill:#ec1c24;}.cls-4{font-size:32.01px;font-family:BrushScriptMT, Brush Script MT;}</style></defs><title>logo-transluz-fullcolor</title><g id="Layer_2" data-name="Layer 2"><g id="Camada_1" data-name="Camada 1"><path class="cls-1" d="M258.55,40.93C243.68-5,174.38-6.3,39.84,8.17c191-10.3,197,3.68,194.57,32.76Z"></path><path class="cls-2" d="M253.43,41C241.26-5.54,146.3-3.6,11.75,10.87,202.77.57,236,11.88,233.61,41Z"></path><path class="cls-3" d="M169.58,13.27l.19-.35,3.64-.09a1.91,1.91,0,0,0,.76-.2,11,11,0,0,1,3-.69h8L183.9,14.5l-6.8-.25a7.82,7.82,0,0,1-3.26-.69c-.19-.06-.41-.13-.67-.19ZM168,16.36l.19-.39,3.5-.1a5.42,5.42,0,0,0,1.61-.39,6.69,6.69,0,0,1,2-.49l8.46-.3-1.47,2.9-7.79-.29a7.42,7.42,0,0,1-2.46-.74,2.19,2.19,0,0,0-.62-.15Zm-1.51,3.1.19-.35,3.5-.05s.3-.06.8-.19c.13,0,.38-.12.76-.25l.75-.24a3.1,3.1,0,0,1,1.09-.2l8.69-.34-1.46,2.9-7.56-.3a4.78,4.78,0,0,1-1.13-.2l-1.66-.59a1.06,1.06,0,0,0-.47-.09ZM165,22.41l.19-.35,3.07,0a1,1,0,0,0,.33-.05h.24l2.08-.59a16.06,16.06,0,0,1,2.83-.34l7-.29-1.47,2.89-6.76-.19a12.93,12.93,0,0,1-3.4-.79,2,2,0,0,0-.75-.15Zm-1.56,3,.14-.29,3.55-.05c.15,0,.45-.12.89-.25a15.21,15.21,0,0,1,2.46-.64l8.7-.34-1.47,2.9-4.58-.15a19.94,19.94,0,0,1-4.11-.34l-1.56-.54a2.24,2.24,0,0,0-.57-.15Zm-1.56,3.2.1-.3,3.64-.1a2,2,0,0,0,.51-.14,10.74,10.74,0,0,1,3-.74l8.51-.35-1.52,3-7.79-.34a2.54,2.54,0,0,1-.85-.2,12.92,12.92,0,0,0-2.18-.69Zm-1.56,2.94a1.52,1.52,0,0,1,.19-.34l3.45-.05a1.35,1.35,0,0,0,.52-.15l1.56-.44a5.59,5.59,0,0,1,1.37-.29l8.65-.35-1.47,2.9-6.47-.24a8.25,8.25,0,0,1-2.41-.3l-1.14-.44a3.1,3.1,0,0,0-1.22-.25Zm-1.56,3.05.19-.34,3.5,0,.33-.1,1.42-.44.56-.15c.41-.1.84-.18,1.28-.25L174.5,33,173,35.87l-6.61-.25a13.84,13.84,0,0,1-1.63-.12,16.93,16.93,0,0,1-2-.66,2.33,2.33,0,0,0-.81-.2Zm-1.56,3,.19-.35,3.41-.1a2.69,2.69,0,0,0,.56-.09l2.18-.64.85-.15L173,36h11l-1.47,2.85-15.92-.19a17.36,17.36,0,0,1-3.92-.3l-1.52-.54a1.78,1.78,0,0,0-.66-.14Zm-1.56,3,.15-.34,3.49-.1a1.9,1.9,0,0,0,.57-.1l2-.59a4.51,4.51,0,0,1,1.28-.19L182.44,39l-1.52,2.9-18.19-.25a5.87,5.87,0,0,1-1.6-.24l-1.33-.49a2.26,2.26,0,0,0-.85-.15Zm-1.55,3v-.3l3.6-.14a2.19,2.19,0,0,0,.52-.1c.88-.26,2-.53,3.36-.79l19.31-.34-1.33,2.65H161.41a5.72,5.72,0,0,1-1.8-.24l-1.6-.55a1.37,1.37,0,0,0-.62-.09Zm-11.68-9,.15-.35,3.45,0a19.29,19.29,0,0,0,2-.59,13.35,13.35,0,0,1,1.56-.34L160.13,33a9.34,9.34,0,0,1-.94,2.95l-10.11-.25a7.24,7.24,0,0,1-2.46-.69,2.06,2.06,0,0,0-.66-.19Zm.05-21.45.19-.37h2.46a39.14,39.14,0,0,0,4.72-.68A51.29,51.29,0,0,1,159,11.3a23,23,0,0,1,7.75,1.21l-1,2-16.26-.21a4.26,4.26,0,0,1-1.51-.2l-1.27-.48a4.88,4.88,0,0,0-1.7-.31Zm-.28,18.5.14-.3,3.45-.14.47-.05,2-.59a3.75,3.75,0,0,1,1.13-.2l10.87-.39c.06.72.09,1.15.09,1.28a8,8,0,0,1-.19,1.62l-10.86-.2a8,8,0,0,1-2.89-.74,2.13,2.13,0,0,0-.8-.19Zm-4-15.33.19-.44,3.5-.1a2.72,2.72,0,0,0,.66-.15l1.89-.59a3.66,3.66,0,0,1,1.09-.14l20.17-.5-1.56,2.95-19-.19a3.13,3.13,0,0,1-1-.15l-1.84-.64a1.3,1.3,0,0,0-.38-.05Zm-.47,12.09.14-.35,2.74-.1a8.4,8.4,0,0,0,1.66-.24l1.74-.49a2.88,2.88,0,0,1,.85-.15l14.23-.39a6.11,6.11,0,0,1,1.13,2.9l-15.4-.2a6.39,6.39,0,0,1-2.37-.54A8.21,8.21,0,0,0,141,28.6ZM136,19.46l.14-.4,3.4-.09a5.64,5.64,0,0,0,.71-.1l2-.64a3.33,3.33,0,0,1,1.09-.15l20.69-.44-1.6,3.19-.95-.36a14,14,0,0,0-5-.86,6.62,6.62,0,0,0-3.92,1l-8.55-.2a9.41,9.41,0,0,1-3-.39,6.37,6.37,0,0,0-1.7-.54Zm-.81,6,.14-.34,3.26-.05a16,16,0,0,0,2.23-.59,6,6,0,0,1,1.65-.35L155,23.78a8.34,8.34,0,0,1,3.88,2.9l-16.78-.2a5,5,0,0,1-1.79-.39,5.31,5.31,0,0,0-1.94-.49Zm-.09-2.95.19-.34,3-.05a8.65,8.65,0,0,0,2.13-.49,8.16,8.16,0,0,1,1.79-.44l10.21-.4a1.72,1.72,0,0,0-.24.79c0,.65.6,1.28,1.8,1.87a4.31,4.31,0,0,1,.66.29l-11.62-.24a12.3,12.3,0,0,1-3.88-.74,1.77,1.77,0,0,0-.61-.15Zm-6.9,15.18.14-.29,3.26-.1a1.84,1.84,0,0,0,.76-.15l2.17-.63a3.44,3.44,0,0,1,1-.15L159.19,36a19.39,19.39,0,0,1-1.94,3l-22.4-.24a9.6,9.6,0,0,1-2.5-.69,2.56,2.56,0,0,0-.76-.2Zm-1.56,3,.19-.29,3.35-.1a26.85,26.85,0,0,1,3.83-.94L157.16,39a17.17,17.17,0,0,1-2.6,2.61l-.24.19s-.09.05-.19.15l-20-.2a6.44,6.44,0,0,1-1.94-.19L130.74,41a5.38,5.38,0,0,0-1.18-.15Zm-1.56,3.05.14-.3,3.4-.1a9.57,9.57,0,0,0,2.23-.59,7.84,7.84,0,0,1,1.55-.34l21.41-.34A18.63,18.63,0,0,1,148,44.66a35.07,35.07,0,0,1-7.94.74,35.09,35.09,0,0,1-8.13-.74L129.18,44a3.53,3.53,0,0,0-.89-.09Zm.28-30.46.15-.35,3.54-.14a3.08,3.08,0,0,0,.52-.1,16,16,0,0,1,4.72-.79h6.57l-1.32,2.6-6.85-.24a7.56,7.56,0,0,1-3.07-.69,2.25,2.25,0,0,0-.71-.24Zm-1.65,3.09.14-.34,3.59-.05a.6.6,0,0,1,.24,0l.57-.15,1.51-.49a3.15,3.15,0,0,1,1.13-.2l8.6-.34L138,17.74l-7.42-.35A5.59,5.59,0,0,1,129,17a6,6,0,0,0-1.8-.54Zm-13,27.27.19-.3,3.4-.09a7.17,7.17,0,0,0,1.65-.4A8.72,8.72,0,0,1,118,42.4l7.52-.29-1.33,2.6H118a7.2,7.2,0,0,1-2.93-.59,2.36,2.36,0,0,0-.89-.29Zm-.24-3,.1-.34,3.49-.1a7.83,7.83,0,0,0,1.78-.42,9.27,9.27,0,0,1,2.24-.46l9-.3L125.59,42l-8.27-.3a10.34,10.34,0,0,1-2.74-.73,2.45,2.45,0,0,0-.75-.2Zm-.23-3,.23-.35,3.4,0a11.92,11.92,0,0,0,1.71-.49l.61-.19a3.66,3.66,0,0,1,1.28-.2L128.66,36l-1.46,2.9L117,38.62a8.41,8.41,0,0,1-2.69-.74,1.77,1.77,0,0,0-.62-.15Zm-3.83-24.37.19-.4,3.4,0a5,5,0,0,0,.61-.1l1.75-.54a9,9,0,0,1,2.51-.25h6.85l.24,2.6-9-.29a5.91,5.91,0,0,1-1.94-.54,4.54,4.54,0,0,0-1.42-.39Zm-1.56,3.08.24-.37,1.93-.05a13.46,13.46,0,0,0,2-.14l1.65-.48a4.67,4.67,0,0,1,1.42-.23l9.83-.29.23,2.8-9.59-.24a10,10,0,0,1-3.59-.71l-.71-.19Zm-1.61,3,.24-.34,3.31,0a2.51,2.51,0,0,0,.66-.1l2.13-.64a2.77,2.77,0,0,1,.85-.15l11.76-.29.14,1.28L125,19a5.84,5.84,0,0,0,1.7-.2l1.7-.49c.38-.1.77-.18,1.18-.25l8.41-.29-1.46,2.9-7.7-.3a4.73,4.73,0,0,1-1.63-.44,4.84,4.84,0,0,0-1.63-.44l-3.17-.05.05,1.23-11.86-.3a6.56,6.56,0,0,1-1.75-.24l-1.47-.54a7.73,7.73,0,0,0-1.79-.2Zm-1.51,3.09.1-.28,3.54-.1a1.72,1.72,0,0,0,.52-.09l2.08-.62a7.86,7.86,0,0,1,1.37-.14l13.13-.29.1,1.13h1a5.58,5.58,0,0,0,1.56-.18l1.65-.45a4.69,4.69,0,0,1,1.28-.23l8.36-.27L135,23.78l-.1,0-7.18-.32a7.19,7.19,0,0,1-2-.53,6.2,6.2,0,0,0-2.15-.48h-.85l.09,1.18-14.36-.28a9.32,9.32,0,0,1-2.51-.72,2.73,2.73,0,0,0-.66-.18Zm-1.56,3.1.14-.37,3.5-.05a2.07,2.07,0,0,0,.61-.15,11,11,0,0,1,3.22-.79l15.07-.31.1,1.18.52-.1,1.93-.54a4.81,4.81,0,0,1,1.14-.2l8.5-.34-1.46,2.9-7.75-.3a2.75,2.75,0,0,1-1-.19l-1.28-.44q0-.11-.57-.15l.1,1.52-14.23-.47a10,10,0,0,1-2.93-.31l-1.55-.63a2.09,2.09,0,0,0-.85-.15Zm-1.56,3.1.14-.26,3.5-.09a11.4,11.4,0,0,0,1.7-.38c.47-.12,1.09-.25,1.84-.4l8.6-.3-.61.79h.14a3.63,3.63,0,0,0,.47-.08l.81-.18.8-.17a5.17,5.17,0,0,1,1.23-.15l16.11-.21-1.51,2.95-15.12-.43a2.72,2.72,0,0,1-1-.13L114,28.83c-.16,0-.35-.1-.57-.18l-.61,1.13L105,29.47a2.55,2.55,0,0,1-.9-.17l-1.32-.43a5.87,5.87,0,0,0-1.37-.18ZM97,31.69l.14-.29,3.54-.1a14.78,14.78,0,0,0,1.75-.49,6.05,6.05,0,0,1,1.75-.4l8.55-.29-.57,1H113a6.45,6.45,0,0,0,1.65-.24,11.69,11.69,0,0,1,2.69-.55l14.46-.24-1.51,2.95-9.78-.29c-.72,0-1.81,0-3.26-.06a6.66,6.66,0,0,1-2.6-.62,3.46,3.46,0,0,0-1.32-.45l-1.42-.06L111.28,33l-.33.06-6.38-.35c-.57,0-1.23-.1-2-.19L101,31.94a1.93,1.93,0,0,0-.71-.15Zm-1.56,2.89.23-.33,2.74,0A5.22,5.22,0,0,0,99.94,34l1.6-.48a11.87,11.87,0,0,1,2.51-.24l6.47-.23h.71l-.71,1.18h2l.43,0h.52c.28-.06.63-.13,1-.18l1.56-.41c.34-.09.8-.18,1.37-.27l12.8-.27L128.71,36l-12.09-.36a2.18,2.18,0,0,1-.86-.22,8.9,8.9,0,0,0-2.12-.73l-3.21-.11-.71,1.28-8-.34a3.22,3.22,0,0,1-1.18-.33,7.64,7.64,0,0,0-1.61-.52Zm-1.56,3,.14-.3,2.55-.1a11.21,11.21,0,0,0,1.8-.19l1.6-.49a3.26,3.26,0,0,1,1.14-.2l8.5-.3-1.46,2.9-7.75-.29a9.35,9.35,0,0,1-1.58-.49,7,7,0,0,0-2.25-.44Zm-1.56,3,.14-.34,3.45,0,.24-.05.7-.15,1-.34a6.47,6.47,0,0,1,1.65-.34l3.31-.15,5.24-.15L106.55,42l-7.7-.3a4.21,4.21,0,0,1-1.47-.39,7.52,7.52,0,0,0-1.65-.54ZM90.72,43.7l.14-.29,3.5-.1a6.13,6.13,0,0,0,1.7-.43,6.23,6.23,0,0,1,1.8-.44l8.64-.33-1.32,2.6H98.47a7.2,7.2,0,0,1-2.22-.24l-1.42-.53-.8-.15ZM78.44,13.29l.19-.35,3.45-.1a2.74,2.74,0,0,0,.47-.05l1.84-.6a6.54,6.54,0,0,1,2-.25H97.34l-.43,2.65-11.48-.3a3.5,3.5,0,0,1-1.37-.2l-1.23-.45a3.05,3.05,0,0,0-1.18-.25Zm-.81,24.35.15-.3,3.44-.1a1.75,1.75,0,0,0,.67-.14l1.65-.5a4.34,4.34,0,0,1,1.28-.24L93.27,36l-.56,2.9-8.51-.29a4.65,4.65,0,0,1-1.61-.44A4.42,4.42,0,0,0,81,37.73Zm-.71,3,.15-.34,3.54-.1a12.81,12.81,0,0,0,1.75-.49,11.9,11.9,0,0,1,1.75-.39l8.6-.3-.48,2.85-9-.29a4.25,4.25,0,0,1-1.33-.35,5.83,5.83,0,0,0-.89-.34,1.69,1.69,0,0,0-.76-.2Zm-.75,3,.19-.3L80,43.29a1.71,1.71,0,0,0,.48-.1l1.18-.4a8.35,8.35,0,0,1,1.84-.39l8.65-.34-.43,2.65H83.87a6.4,6.4,0,0,1-2-.24l-1.61-.55a2.34,2.34,0,0,0-.61-.14ZM75.84,17l.14-.34,3.31-.1A11.15,11.15,0,0,0,81.74,16a9.54,9.54,0,0,1,2.18-.39l12.94-.3-.47,2.9L84.72,18a14.69,14.69,0,0,1-3.12-.24l-1.51-.54c-.28-.07-.66-.13-1.13-.2ZM73.19,19.9l.24-.34,3.49-.1a2.26,2.26,0,0,0,.81-.2c.22-.06.72-.18,1.51-.34l.94-.2a5.71,5.71,0,0,1,1.23-.15l14.93-.34-.47,2.95-13.7-.25A29.74,29.74,0,0,1,79,20.74l-1.61-.59A2.84,2.84,0,0,0,76.26,20Zm-2.55,2.78.19-.38,3.45-.12a19,19,0,0,0,1.84-.54l.52-.18a4.29,4.29,0,0,1,1.23-.27l9.59-.55-.66.88.47-.05.81-.06,1-.07,6.75-.16-.52,2.94-6.47-.35c-.69-.05-1.15-.1-1.37-.14a6.87,6.87,0,0,1-1.28-.57,2.56,2.56,0,0,0-.47-.21l-.85,1.27-6.85-.27a6.67,6.67,0,0,1-2.41-.5,6.5,6.5,0,0,0-1.75-.61ZM68,25.77l.14-.34,3.45-.11a2.9,2.9,0,0,0,.62-.1l2-.6a6.17,6.17,0,0,1,1-.19l9.5-.31-.95.94a15.59,15.59,0,0,0,2.55-.45,6,6,0,0,1,1.33-.22l7.56-.27-.48,2.95-7.46-.37a4.29,4.29,0,0,1-1.18-.24l-1.7-.74a2.79,2.79,0,0,0-1.09-.12l-1,1.47-7.85-.3a3.57,3.57,0,0,1-1.37-.39,4.27,4.27,0,0,0-1.65-.5Zm-2.6,2.83.14-.34,3.55-.09a7.16,7.16,0,0,0,1.51-.38,10.91,10.91,0,0,1,2-.48l9.59-.24-.94,1.08h.85a9.24,9.24,0,0,0,2.27-.2L86,27.53a5.19,5.19,0,0,1,.89-.12l7.9-.34L94.31,30l-8.08-.34-.75-.23a9.28,9.28,0,0,0-3.22-.85H80.94l-1.23,1.47-8.08-.57a1.62,1.62,0,0,1-.61-.14,18.43,18.43,0,0,0-2.08-.67Zm-2.6,3.09L63,31.3l2.6-.05a5.31,5.31,0,0,0,1.47-.15l2.08-.59a3.89,3.89,0,0,1,1.18-.15l24-.34L93.79,33l-23.2-.3A9.67,9.67,0,0,1,67,31.94a1.81,1.81,0,0,0-.66-.15Zm-2.55,2.9.19-.34,3.45,0,.19-.05,1.65-.44.43-.15a5.81,5.81,0,0,1,1.94-.3h1.41L93.75,33l-.48,2.9-23.39-.25-3.16,0a4.44,4.44,0,0,1-1.32-.34l-1.56-.54Zm-2.6,3.12.15-.34,3.44,0a7.05,7.05,0,0,0,1.56-.43,7.81,7.81,0,0,1,1.85-.47l10.25-.55-2.65,3.19-7.7-.35A9.11,9.11,0,0,1,61.8,38a1.91,1.91,0,0,0-.61-.14Zm-2.6,3,.15-.36,3.54-.1a1.9,1.9,0,0,0,.52-.11l2.17-.65a2.8,2.8,0,0,1,1-.16l9.73-.3-2.41,3-8.08-.31A5,5,0,0,1,60,41.32a9.24,9.24,0,0,0-1.6-.53Zm-2.64,3,.14-.35,3.64-.09a12.19,12.19,0,0,0,1.79-.5,8.56,8.56,0,0,1,1.66-.34l10.06-.39-2.22,2.65h-8A8.83,8.83,0,0,1,56.75,44a2.39,2.39,0,0,0-.9-.19ZM49.76,22.42l.18-.36H52.5a6.86,6.86,0,0,0,2.17-.32l1.27-.41,1-.18,8-.27a8.92,8.92,0,0,1-1.09,3l-7.7-.36a2.67,2.67,0,0,1-1.09-.26l-1.22-.53a8,8,0,0,0-1.47-.2ZM44.65,43.73l.19-.39,3.5-.05.19,0,1.89-.54a2.58,2.58,0,0,0,.42-.13,2.35,2.35,0,0,1,.71-.12l8-.34,1,2.6H51.46a8.19,8.19,0,0,1-2.6-.74,1.74,1.74,0,0,0-.66-.14Zm-.85-3.1.14-.29,3.55-.1.33-.05,2-.59a2.24,2.24,0,0,1,.95-.2l7.65-.34L59.54,42l-7.94-.25A9,9,0,0,1,48.15,41c-.22-.07-.49-.13-.8-.2ZM43,37.69l.14-.3,3.41-.1a4.71,4.71,0,0,0,1.13-.24l1.37-.4a6.4,6.4,0,0,1,.76-.19l7.51-.35,1.09,3-6.67-.24c-1.41-.07-2.31-.14-2.69-.2A15.13,15.13,0,0,1,47.11,38a1.81,1.81,0,0,0-.66-.15ZM38,13.22l.19-.35,3.35,0a2.82,2.82,0,0,0,.85-.15,14.09,14.09,0,0,1,4.07-.74H57.13c3.56,0,5.87.89,6.94,2.65l-18.9-.34a5.23,5.23,0,0,1-1.89-.34l-1.23-.45a1.91,1.91,0,0,0-.61-.14Zm-1.56,3,.14-.34h2.75a10.21,10.21,0,0,0,1.33-.2l2-.59c.35-.06.72-.11,1.13-.14l20.39-.25a8.88,8.88,0,0,1,.95,2.9l-21.76-.39a6.35,6.35,0,0,1-2.35-.47,4.09,4.09,0,0,0-1.17-.42Zm-1.56,3.09.14-.38H37.9a6.08,6.08,0,0,0,1.55-.21l1.75-.45a6.78,6.78,0,0,1,1.56-.12L65.16,18a5,5,0,0,0,0,.64v.44A7.29,7.29,0,0,1,65,20.88l-23.48-.43a4.29,4.29,0,0,1-1.14-.22l-1.46-.66a1.8,1.8,0,0,0-.81-.17Zm-1.56,3,.09-.3L37,22c.19,0,.65-.14,1.37-.34a11.46,11.46,0,0,1,1.75-.49l9.12-.59-1.66,3.34-8.08-.59A4.9,4.9,0,0,1,38.37,23a7.25,7.25,0,0,0-1.56-.55Zm-1.56,3,.14-.29,3.4,0a3.65,3.65,0,0,0,.57-.1c.85-.26,1.81-.52,2.88-.79l25.09-.24A12.31,12.31,0,0,1,62,26.78L38,26.39a1.77,1.77,0,0,1-.62-.15L37,26.09l-1.32-.49a1.81,1.81,0,0,0-.66-.15ZM30.19,28.5l.19-.35,3.5-.09a2.39,2.39,0,0,0,.8-.15,12.86,12.86,0,0,1,2.65-.69L61.9,27a13.14,13.14,0,0,1-3.36,3l-21.12-.39a4.83,4.83,0,0,1-1.7-.3c-.53-.19-1.07-.37-1.6-.54a1.65,1.65,0,0,0-.48-.09Zm-1.56,3,.15-.29,3.54-.1c.44-.1,1.13-.29,2.08-.59a5.57,5.57,0,0,1,1.51-.29l22.54-.3a24.15,24.15,0,0,1-2.79,1.57l.47,1.33-20.6-.29a3.15,3.15,0,0,1-1-.2,3.38,3.38,0,0,1-.76-.22,3.22,3.22,0,0,0-.75-.22,4.21,4.21,0,0,0-.9-.3ZM27,34.57l.24-.35,3.45-.1a2.69,2.69,0,0,0,.56-.09l1.94-.53a9.54,9.54,0,0,1,1.09-.2l8.64-.48-.7,1.38h2.5A8.18,8.18,0,0,0,46.64,34l1.51-.37a4.49,4.49,0,0,1,.9-.16l7.13-.25,1.09,2.9-6.43-.28c-.34,0-.85-.08-1.51-.11a8.23,8.23,0,0,1-1.7-.23l-1.51-.62-.48-.17s0,0-.23-.05L42,34.59l-.71,1.28-6.57-.29a9.36,9.36,0,0,1-2.81-.51,4.83,4.83,0,0,0-1.58-.41Zm-1.46,3.06.18-.33L29,37.2a3.56,3.56,0,0,0,.66-.09l2.08-.57a4.25,4.25,0,0,1,1.22-.19l8.32-.24-1.51,2.8-7-.28a7.43,7.43,0,0,1-2.34-.5,5.85,5.85,0,0,0-2.1-.45Zm-1.61,3,.14-.3,3-.05a4,4,0,0,0,1.23-.18l1.65-.49c.09,0,.54-.11,1.32-.24l8.46-.29L38.18,42l-7.56-.34a3.9,3.9,0,0,1-1.23-.24L28,40.9a1.72,1.72,0,0,0-.61-.15ZM22.35,43.7l.14-.34,2.88,0a5,5,0,0,0,1.52-.24l1.6-.48a6.63,6.63,0,0,1,1.09-.15l8.5-.33-1.32,2.6H30.29a8.86,8.86,0,0,1-2.88-.43c-.51-.17-1.19-.34-2-.54ZM11,22.36l.19-.35h3.36s.75-.19,2.17-.59a8.05,8.05,0,0,1,1.51-.34l8.55-.3-1.51,2.9-7.61-.29a3,3,0,0,1-1.13-.2l-1.42-.54a2.68,2.68,0,0,0-1-.2ZM9.4,25.45l.19-.39L13,25l2.27-.59a6,6,0,0,1,1.37-.25l8.51-.34-1.47,2.9-6.23-.25a12,12,0,0,1-3.74-.73,2.73,2.73,0,0,0-1-.25ZM8.22,13.32l.24-.45,3.49,0a2.28,2.28,0,0,0,.57-.1l2.22-.64a3.25,3.25,0,0,1,1.14-.15H37.66L36.34,14.5l-21.12-.25a4.58,4.58,0,0,1-1.75-.34l-1.14-.45a1.53,1.53,0,0,0-.56-.09ZM7.84,28.6l.1-.3,2.79-.05a5.09,5.09,0,0,0,1.51-.19L14,27.52a3.18,3.18,0,0,1,1-.2l8.55-.3L22.07,30l-4.78-.24c-1.73-.1-2.77-.17-3.11-.2a5,5,0,0,1-1.23-.3,7.2,7.2,0,0,0-1.7-.49ZM6.76,16.31,7,15.92l3.45-.05a1.89,1.89,0,0,0,.56-.1l2.18-.64A4.1,4.1,0,0,1,14.27,15l22-.35-1.47,2.9-20.5-.19a5.23,5.23,0,0,1-1.8-.2l-1.6-.54a4.46,4.46,0,0,0-1.28-.2ZM6.28,31.54l.15-.34,3.26-.05a7.08,7.08,0,0,0,1.93-.44,6.87,6.87,0,0,1,2-.44L22,30l-1.51,3-5.39-.25c-1.54-.06-2.46-.12-2.74-.17a17.49,17.49,0,0,1-2-.66,2.56,2.56,0,0,0-.76-.2ZM5.2,19.41,5.43,19l3.31,0c.6-.15,1.48-.37,2.65-.64a4.78,4.78,0,0,1,1.27-.18l22.07-.33-1.46,3-20.94-.36a8.33,8.33,0,0,1-2.88-.75,3.22,3.22,0,0,0-.9-.26ZM4.73,34.54l.14-.34h3.4A7.88,7.88,0,0,0,10,33.71a8.35,8.35,0,0,1,1.84-.45l8.6-.34L19,35.82l-7.51-.25a9.53,9.53,0,0,1-2.64-.73,2,2,0,0,0-.71-.2Zm-1.61,3.1.19-.33L6.8,37.2A.43.43,0,0,0,7,37.15h.14l1.37-.4.66-.24,1-.2L18.9,36c-.63,1.28-1.09,2.18-1.37,2.71l-.14.39-5.58-.22a15.56,15.56,0,0,1-1.65-.11,4.25,4.25,0,0,1-1.09-.16l-1.93-.71a5.53,5.53,0,0,1-.57-.17ZM1.56,40.73l.14-.29,3.5-.1c.06,0,.34-.07.85-.2a11.16,11.16,0,0,1,2.79-.69l8.5-.34-1.51,3-6.05-.25-1.56-.1c-.31,0-.64-.08-1-.14L5.62,41a2.5,2.5,0,0,0-1-.15ZM0,43.68l.19-.34,3.5-.05.8-.2a16.27,16.27,0,0,1,2.74-.74l8.55-.29-1.37,2.65H6.8a4.86,4.86,0,0,1-1.86-.47,5,5,0,0,0-1.82-.46Z"></path><path class="cls-3" d="M231.67,22.41l.19-.35,3.59-.1a3.49,3.49,0,0,0,.69-.12,12.33,12.33,0,0,0,1.3-.42c.37-.1.88-.19,1.51-.29l11.24-.3-2.88,2.9-8.41-.29a12,12,0,0,1-3.07-.79,1.81,1.81,0,0,0-.66-.15Zm-3,3.09.15-.29,3.45-.1a2.83,2.83,0,0,0,.61-.1l1.56-.44a9.74,9.74,0,0,1,2-.3L247.17,24l-2.88,2.9-8.65-.35a7.2,7.2,0,0,1-2.79-.64,3.09,3.09,0,0,0-.85-.29ZM227,13.27l.15-.4,3.4,0a3.09,3.09,0,0,0,.75-.15l1.75-.49a7.65,7.65,0,0,1,2.08-.25h23.72l-2.5,2.65-22.83-.34a12.7,12.7,0,0,1-2.26-.74,2.51,2.51,0,0,0-.81-.19Zm-1.32,15.18.14-.35,3.12,0a7.65,7.65,0,0,0,2.15-.45,8.07,8.07,0,0,1,2.29-.44l10.82-.29-2.88,2.94-9-.34a10,10,0,0,1-2.6-.79,2,2,0,0,0-.57-.14Zm-.24-12.19.19-.29,3.41-.1a2,2,0,0,0,.61-.1q1.37-.39,3.21-.78l23.34-.25-2.88,2.9-20.79-.34a5.65,5.65,0,0,1-2-.4,10.72,10.72,0,0,0-1.34-.44c-.19,0-.55-.06-1.09-.1Zm-1.56,3.1L224,19l2.45-.05a6.47,6.47,0,0,0,1.85-.25l1.89-.54a3.94,3.94,0,0,1,1.18-.15l21.78-.24-2.83,2.9-19.42-.35a5.92,5.92,0,0,1-2.13-.44,11.2,11.2,0,0,0-1.84-.49Zm-1.18,12.13.15-.29,3.44-.1a.48.48,0,0,0,.19-.05h.19l1.94-.59a4.7,4.7,0,0,1,1.42-.24l11.1-.25-2.83,2.85-6.34-.2a19.58,19.58,0,0,1-3.73-.29l-1.7-.64a1.21,1.21,0,0,0-.57-.15Zm-3,3.05.09-.34,3.5-.05.28,0,.76-.2.76-.24a9.75,9.75,0,0,1,2.12-.4l11-.29-3,3.09-7.23-.44a12,12,0,0,1-3.21-.49,6.64,6.64,0,0,0-1.66-.54Zm-3,3.1.09-.3,3.64-.1a1.65,1.65,0,0,0,.47-.09,11.61,11.61,0,0,1,3.45-.74h22.92l-1.33,2.65-22.49-.39a2.71,2.71,0,0,1-1-.15l-1.65-.59a1.82,1.82,0,0,0-.62-.15Zm-3,2.94.1-.29h1.74a9.83,9.83,0,0,0,2.74-.3,13.79,13.79,0,0,1,3-.68l24.57-.25L244.29,42l-23.39-.34a5.14,5.14,0,0,1-1.61-.2l-1.56-.54a6.78,6.78,0,0,0-1.7-.2Zm-3,3.05v-.29l3.5-.1a2.81,2.81,0,0,0,.81-.15,24.88,24.88,0,0,1,3.37-.79l26-.19-1.37,2.6H217.5a3.75,3.75,0,0,1-1.28-.24l-1.37-.5a3.3,3.3,0,0,0-1-.24Zm.9-30.22.18-.44h2.74a5,5,0,0,0,1.42-.19l1.66-.5a23,23,0,0,1,5-.34H227l-1.28,2.75-6.23-.27a7.8,7.8,0,0,1-2.08-.21l-1.7-.64a2.47,2.47,0,0,0-.9-.16ZM210,16.46l.14-.44,3.6,0c.06,0,.74-.2,2-.59a7.42,7.42,0,0,1,1.56-.29l8.36-.4-1.42,2.9-7.84-.24-.76-.2a11.34,11.34,0,0,0-2.08-.69Zm-1.56,3.05.19-.4,3.5-.09a1.9,1.9,0,0,0,.57-.1l1.89-.59a3.1,3.1,0,0,1,1-.2l8.6-.39-1.47,2.9-7.75-.25-.7-.15-1.71-.63a3.47,3.47,0,0,0-.7-.1ZM207,22.45l.19-.29,3.4-.1s.72-.19,2.08-.59a5.56,5.56,0,0,1,1.46-.29l8.56-.4-1.47,2.9-6.05-.19c-.31,0-.78,0-1.41,0l-.95-.15L211,22.7l-.67-.15Zm-1.51,3.15.09-.3,3.26,0a12.56,12.56,0,0,0,2.46-.64,9.74,9.74,0,0,1,1.18-.3l8.69-.39-1.51,2.95-6.85-.25a6.56,6.56,0,0,1-1.75-.24l-1.7-.59a1.53,1.53,0,0,0-.61-.1Zm-1.56,2.95.14-.35,2,.05a5.87,5.87,0,0,0,2.08-.24l1.56-.49a5.71,5.71,0,0,1,1.37-.25l8.56-.39-1.47,2.9h-.47l-7.37-.25a.49.49,0,0,0-.19-.05l-.66-.15-1.28-.44-.66-.2a.43.43,0,0,0-.19,0Zm-1.61,3,.24-.34,3.35-.05a7.25,7.25,0,0,0,1.66-.42,11.52,11.52,0,0,1,2-.51L218,30l-1.42,2.85-7.47-.24a4.82,4.82,0,0,1-1.13-.15l-1.8-.64a3.65,3.65,0,0,0-1.41-.15Zm-1.56,3.05.19-.34,3.45-.1a6.05,6.05,0,0,0,1.75-.4,8.31,8.31,0,0,1,1.79-.44l8.6-.39L215,35.87l-7.61-.25a3.8,3.8,0,0,1-1.56-.39,5.24,5.24,0,0,0-1.7-.54Zm-7.61-21.2.19-.4,2.22,0a15.62,15.62,0,0,0,2.23-.25l1.65-.45a8.26,8.26,0,0,1,1.79-.35h7.47l-1.28,2.75-6.85-.25a7.29,7.29,0,0,1-2.31-.45,7.21,7.21,0,0,0-1.66-.5Zm-1.55,3,.23-.4,3.5-.11a12.67,12.67,0,0,0,2-.57,4.89,4.89,0,0,1,1.37-.31l8.6-.36-1.51,3-7.09-.31a6.78,6.78,0,0,1-2.83-.67,1.9,1.9,0,0,0-.76-.26Zm-1.47,3.08.19-.41,3.4-.05c.57-.13,1.26-.34,2.08-.61a4,4,0,0,1,1.32-.3l8.65-.41-1.42,3-7.51-.3a8.58,8.58,0,0,1-2.31-.66,4.18,4.18,0,0,0-1-.21Zm-1.56,3.07.19-.36,3.54-.17a2,2,0,0,0,.64-.15c.27-.11.72-.27,1.35-.46a7.66,7.66,0,0,1,1.65-.35l8.32-.32-1.47,3.15L195,23.61a3.78,3.78,0,0,1-1.37-.43,5.22,5.22,0,0,0-1.66-.53Zm-1.51,3,.09-.29,3.55-.1c.41-.11,1-.28,1.72-.52a7.06,7.06,0,0,1,1.87-.43l8.41-.35-1.47,2.95-7.65-.31a6.92,6.92,0,0,1-.85-.09l-1.51-.55-.62-.2a.49.49,0,0,1-.19-.05Zm-1.56,3,.14-.31,2.36-.05a7.87,7.87,0,0,0,1.75-.21l1.7-.58a3.88,3.88,0,0,1,1.28-.26l8.41-.31L199.64,30l-7.23-.31a8.35,8.35,0,0,1-2.13-.53,7,7,0,0,0-2.22-.47Zm-.66,15.13.14-.3,3.54,0a.8.8,0,0,1,.29-.09l1.6-.45.43-.14a3.78,3.78,0,0,1,1.37-.25l18-.39q-3.92,3.28-12,3.29a28.43,28.43,0,0,1-8-.93l-1.61-.5a1.72,1.72,0,0,0-.52-.09Zm-.9-12.06.19-.35,3.45-.05a1.38,1.38,0,0,0,.38-.1,29.92,29.92,0,0,1,3.16-.85l8.46-.35-1.46,3-7.8-.3a18.53,18.53,0,0,1-2.32-.75l-.47-.15Zm-1.09,3,.15-.3,3.49-.14c.07,0,.66-.17,1.8-.49a9.13,9.13,0,0,1,2.08-.4L198,33a4.78,4.78,0,0,0-.28,1.23c0,.72.5,1.32,1.51,1.81l-10.11-.49a6.33,6.33,0,0,1-2-.54,2.53,2.53,0,0,0-.75-.24Zm-.33,6.19.14-.3,2.56,0a5.62,5.62,0,0,0,1.7-.25l1.79-.54a6.1,6.1,0,0,1,1-.2l23.34-.34a15.57,15.57,0,0,1-2.74,2.9l-21.16-.25-1-.15L186.41,41a3.61,3.61,0,0,0-.86-.1Zm-.42-3.1.19-.34,3.49-.1a10.08,10.08,0,0,0,1.94-.54,6.35,6.35,0,0,1,1.8-.39l10.06-.15h.14l1,.25a4.72,4.72,0,0,0,.86,0,9,9,0,0,0,2.31-.35l11.1-.15c-.63,1.12-1.21,2.08-1.74,2.9l-24.48-.24a4.23,4.23,0,0,1-1.56-.35c-.44-.16-1-.34-1.7-.54Z"></path><text class="cls-4" transform="translate(199.04 63.81) rotate(-11.15)">V</text><text class="cls-4" transform="translate(212.03 61.25) rotate(-11.15)">iagens</text></g></g></svg> 