<?xml version="1.0" encoding="UTF-8" standalone="no" ?>
<!DOCTYPE svg PUBLIC "-//W3C//DTD SVG 1.1//EN" "http://www.w3.org/Graphics/SVG/1.1/DTD/svg11.dtd">
<svg xmlns="http://www.w3.org/2000/svg" xmlns:xlink="http://www.w3.org/1999/xlink" version="1.1" width="1080" height="1080" viewBox="0 0 1080 1080" xml:space="preserve">
<desc>Created with Fabric.js 5.2.4</desc>
<defs>
</defs>
<rect x="0" y="0" width="100%" height="100%" fill="transparent"></rect>
<g transform="matrix(1 0 0 1 540 540)" id="0ea2ec4d-07ff-4341-aed6-da3117875cc2"  >
<rect style="stroke: none; stroke-width: 1; stroke-dasharray: none; stroke-linecap: butt; stroke-dashoffset: 0; stroke-linejoin: miter; stroke-miterlimit: 4; fill: rgb(0,0,0); fill-rule: nonzero; opacity: 1; visibility: hidden;" vector-effect="non-scaling-stroke"  x="-540" y="-540" rx="0" ry="0" width="1080" height="1080" />
</g>
<g transform="matrix(1 0 0 1 540 540)" id="15d9bae5-65e5-49a2-98c2-527a39c3f4ea"  >
</g>
<g transform="matrix(2.12 0 0 2.12 540 540)"  >
<path style="stroke: none; stroke-width: 1; stroke-dasharray: none; stroke-linecap: butt; stroke-dashoffset: 0; stroke-linejoin: miter; stroke-miterlimit: 4; fill: rgb(255,255,255); fill-rule: nonzero; opacity: 1;" vector-effect="non-scaling-stroke"  transform=" translate(-345.13, -279.73)" d="M 342.72 68.656 C 356.88800000000003 98.672 368.98600000000005 131.03900000000002 385.728 159.656 C 401.744 187.097 425.88 209.66400000000002 442.568 236.711 C 459.25899999999996 263.762 466.818 295.68 481.099 323.68 C 495.38 351.68 519.572 375.313 537.0989999999999 401.575 C 554.626 427.841 566.5559999999999 461.83299999999997 580.275 491.177 L 587.5562 478.521 C 557.2012 481.603 525.5602 487.6499 495.1542 487.20070000000004 C 462.9552 486.69679 430.75620000000004 476.0017 398.55219999999997 476.0017 C 366.35319999999996 476.0017 334.15419999999995 487.20070000000004 301.9502 487.20070000000004 C 269.7512 487.20070000000004 237.6612 476.95470000000006 205.5162 476.0017 C 171.9142 475.16186000000005 136.4112 481.60330000000005 102.6962 484.29080000000005 L 109.9774 496.94680000000005 C 128.9614 469.56380000000007 151.3604 442.73980000000006 167.6024 413.7318 C 183.8404 384.72380000000004 190.67239999999998 352.4118 206.8014 324.12980000000005 C 222.9304 295.84880000000004 248.0744 273.7318 264.4814 246.06780000000003 C 280.89140000000003 218.39980000000003 288.3954 186.31380000000004 302.8994 157.75580000000002 C 318.29740000000004 126.95480000000002 339.1884 98.00180000000003 357.2744 68.65780000000002 C 362.87600000000003 59.41950000000002 348.42670000000004 50.96280000000002 342.7704 60.20080000000002 C 325.2434 88.64980000000003 305.1964 116.64980000000003 289.8524 146.27480000000003 C 274.8444 174.94680000000002 266.83639999999997 207.59480000000002 250.9894 235.87680000000003 C 235.14139999999998 264.15380000000005 209.7164 286.1068 193.19639999999998 313.60380000000004 C 176.67639999999997 341.0998 169.5084 374.0258 154.5554 402.3618 C 138.5984 432.60380000000004 114.79739999999998 460.37780000000004 95.42239999999998 488.5458 C 93.92629999999998 491.1552 93.93019999999999 494.3583 95.43021299999998 496.9638 C 96.92631299999998 499.5693 99.69581299999999 501.1826 102.69971299999997 501.2021 C 135.73871299999996 498.4013 169.898713 492.8037 203.04971299999997 492.8037 C 234.80371299999996 492.8037 266.44071299999996 502.6045 298.24871299999995 503.4987 C 330.057713 504.39322999999996 361.19371299999995 495.1549 392.77971299999996 493.47569999999996 C 424.36571299999997 491.79599999999994 456.732713 500.97959999999995 488.259713 503.16319999999996 C 520.794713 505.46009999999995 555.122713 498.5694 587.603713 495.60459999999995 C 590.592013 495.54991299999995 593.334213 493.92879999999997 594.826413 491.33509999999995 C 596.318613 488.74529999999993 596.338113 485.55779999999993 594.8811010000001 482.94839999999994 C 582.1111010000001 455.28439999999995 571.4751010000001 424.71039999999994 555.6821010000001 398.6123999999999 C 538.8811010000001 370.94839999999994 513.7951010000002 348.2143999999999 497.7211010000001 320.49139999999994 C 481.6511010000001 292.77239999999995 475.1551010000001 259.28439999999995 459.2521010000001 231.28439999999995 C 443.3501010000001 203.28439999999995 418.2051010000001 180.88639999999995 401.4591010000001 153.27639999999997 C 383.5961010000001 124.49139999999997 371.7211010000001 90.78039999999996 357.21710100000007 60.14739999999996 C 352.62730100000005 50.401299999999964 338.1231010000001 58.91299999999996 342.71310100000005 68.65909999999997 z" stroke-linecap="round" />
</g>
</svg>