<svg id="svg" version="1.1" xmlns="http://www.w3.org/2000/svg" xmlns:xlink="http://www.w3.org/1999/xlink" width="400" height="400" viewBox="0, 0, 400,400"><g id="svgg"><path id="path0" d="M238.600 108.222 C 236.964 109.064,228.583 117.380,227.155 119.578 C 223.936 124.535,230.119 130.516,234.938 127.108 C 236.926 125.702,244.328 118.375,245.625 116.528 C 248.940 111.810,243.691 105.604,238.600 108.222 M120.750 161.259 C 117.331 163.242,117.258 169.604,120.636 171.144 C 122.102 171.812,138.694 171.741,139.918 171.062 C 143.105 169.293,142.885 163.094,139.568 161.230 C 137.311 159.962,122.950 159.984,120.750 161.259 M243.800 203.986 C 243.360 204.171,242.340 205.015,241.532 205.861 C 240.120 207.342,239.843 208.199,239.958 210.744 C 240.014 211.999,250.586 222.759,252.965 223.982 L 254.693 224.871 256.421 223.989 C 258.742 222.805,260.825 220.276,260.789 218.688 C 260.756 217.252,258.475 214.239,254.072 209.816 C 248.162 203.877,246.418 202.888,243.800 203.986 M332.306 272.976 C 331.705 273.702,330.825 275.309,330.351 276.547 C 329.484 278.814,328.800 279.464,328.800 278.024 C 328.800 277.597,328.620 277.136,328.400 277.000 C 328.180 276.864,328.000 276.495,328.000 276.179 C 328.000 274.439,324.321 272.432,322.136 272.980 C 320.869 273.298,318.018 276.105,312.467 282.500 C 307.250 288.510,307.223 288.498,302.966 278.298 C 301.106 273.843,299.314 272.700,294.240 272.737 C 292.502 272.749,290.891 272.949,290.660 273.180 C 290.429 273.411,289.993 273.600,289.692 273.600 C 288.618 273.600,285.326 276.224,280.400 281.007 C 271.607 289.545,271.377 289.572,265.962 282.676 C 264.201 280.434,262.542 278.330,262.275 278.000 C 262.007 277.670,261.374 276.816,260.868 276.102 C 258.704 273.049,252.708 271.613,248.434 273.123 C 247.865 273.324,246.698 273.715,245.841 273.992 C 243.104 274.874,239.865 277.047,234.766 281.418 C 225.514 289.350,224.502 289.321,215.842 280.871 C 210.444 275.604,208.733 274.367,205.606 273.470 C 203.713 272.927,195.261 272.657,194.671 273.120 C 194.412 273.323,193.725 273.603,193.145 273.741 C 191.657 274.096,188.515 276.548,184.257 280.677 C 177.892 286.850,177.969 286.800,174.886 286.799 C 171.874 286.797,171.201 286.480,167.538 283.339 C 154.874 272.482,155.275 272.710,148.846 272.708 C 142.771 272.706,140.519 274.171,134.479 282.053 C 130.973 286.629,130.752 286.800,128.341 286.800 C 125.994 286.800,125.734 286.625,119.410 280.800 C 111.616 273.621,110.165 272.800,105.266 272.800 C 99.824 272.800,98.500 274.172,94.174 284.297 C 93.039 286.953,91.400 286.954,89.547 284.301 C 89.047 283.585,88.529 282.910,88.395 282.800 C 88.261 282.690,86.667 280.761,84.854 278.512 C 80.903 273.612,79.614 272.601,77.317 272.601 C 75.355 272.600,72.561 274.951,71.594 277.416 C 70.880 279.235,70.644 279.167,69.807 276.900 C 68.026 272.079,66.052 271.122,63.387 273.787 C 61.977 275.197,61.152 282.400,62.400 282.400 C 62.620 282.400,62.800 282.940,62.800 283.600 C 62.800 284.260,62.980 284.800,63.200 284.800 C 63.420 284.800,63.600 285.419,63.600 286.176 C 63.600 286.933,63.780 287.664,64.000 287.800 C 64.220 287.936,64.400 288.476,64.400 289.000 C 64.400 289.524,64.580 290.064,64.800 290.200 C 65.020 290.336,65.200 290.887,65.200 291.424 C 65.200 291.961,65.380 292.400,65.600 292.400 C 65.820 292.400,66.000 293.120,66.000 294.000 C 66.000 294.880,66.180 295.600,66.400 295.600 C 66.620 295.600,66.800 296.140,66.800 296.800 C 66.800 297.460,66.980 298.000,67.200 298.000 C 67.420 298.000,67.600 298.540,67.600 299.200 C 67.600 299.860,67.780 300.400,68.000 300.400 C 68.220 300.400,68.400 301.120,68.400 302.000 C 68.400 302.880,68.580 303.600,68.800 303.600 C 69.020 303.600,69.200 304.140,69.200 304.800 C 69.200 305.460,69.380 306.000,69.600 306.000 C 69.820 306.000,70.000 306.439,70.000 306.976 C 70.000 307.513,70.180 308.064,70.400 308.200 C 70.620 308.336,70.800 309.067,70.800 309.824 C 70.800 310.581,70.980 311.200,71.200 311.200 C 71.420 311.200,71.600 311.740,71.600 312.400 C 71.600 313.060,71.780 313.600,72.000 313.600 C 72.220 313.600,72.400 314.219,72.400 314.976 C 72.400 315.733,72.580 316.464,72.800 316.600 C 73.020 316.736,73.200 317.377,73.200 318.024 C 73.200 318.671,73.380 319.200,73.600 319.200 C 73.820 319.200,74.000 319.740,74.000 320.400 C 74.000 321.060,74.180 321.600,74.400 321.600 C 74.620 321.600,74.808 322.185,74.818 322.900 C 74.827 323.615,75.095 324.920,75.412 325.800 C 75.729 326.680,75.991 327.805,75.994 328.300 C 75.997 328.795,76.180 329.200,76.400 329.200 C 76.620 329.200,76.800 329.819,76.800 330.576 C 76.800 331.333,76.980 332.064,77.200 332.200 C 77.420 332.336,77.600 332.977,77.600 333.624 C 77.600 334.271,77.780 334.800,78.000 334.800 C 78.220 334.800,78.400 335.340,78.400 336.000 C 78.400 336.660,78.580 337.200,78.800 337.200 C 79.020 337.200,79.200 337.830,79.200 338.600 C 79.200 339.370,79.380 340.000,79.600 340.000 C 79.820 340.000,80.000 340.540,80.000 341.200 C 80.000 341.860,80.180 342.400,80.400 342.400 C 80.620 342.400,80.800 342.940,80.800 343.600 C 80.800 344.260,80.980 344.800,81.200 344.800 C 81.420 344.800,81.600 345.520,81.600 346.400 C 81.600 347.280,81.780 348.000,82.000 348.000 C 82.220 348.000,82.400 348.540,82.400 349.200 C 82.400 349.860,82.580 350.400,82.800 350.400 C 83.020 350.400,83.200 350.940,83.200 351.600 C 83.200 352.260,83.380 352.800,83.600 352.800 C 83.820 352.800,84.000 353.340,84.000 354.000 C 84.000 354.660,84.180 355.200,84.400 355.200 C 84.620 355.200,84.800 355.560,84.800 356.000 C 84.800 356.440,84.980 356.800,85.200 356.800 C 85.420 356.800,85.600 356.983,85.600 357.206 C 85.600 357.429,87.130 359.141,89.000 361.011 C 90.870 362.881,92.400 364.589,92.400 364.806 C 92.400 365.023,92.760 365.200,93.200 365.200 C 93.640 365.200,94.000 365.380,94.000 365.600 C 94.000 365.820,94.540 366.000,95.200 366.000 C 95.860 366.000,96.400 366.180,96.400 366.400 C 96.400 366.622,97.467 366.800,98.800 366.800 C 100.133 366.800,101.200 366.978,101.200 367.200 C 101.200 367.466,134.459 367.600,200.176 367.600 C 265.729 367.600,299.236 367.465,299.400 367.200 C 299.536 366.980,300.717 366.800,302.024 366.800 C 303.341 366.800,304.400 366.622,304.400 366.400 C 304.400 366.180,304.940 366.000,305.600 366.000 C 306.260 366.000,306.800 365.820,306.800 365.600 C 306.800 365.380,306.983 365.200,307.206 365.200 C 307.855 365.200,313.600 359.276,313.600 358.606 C 313.600 358.273,313.780 358.000,314.000 358.000 C 314.220 358.000,314.400 357.730,314.400 357.400 C 314.400 357.070,314.580 356.800,314.800 356.800 C 315.020 356.800,315.200 356.440,315.200 356.000 C 315.200 355.560,315.380 355.200,315.600 355.200 C 315.820 355.200,316.000 354.660,316.000 354.000 C 316.000 353.340,316.180 352.800,316.400 352.800 C 316.620 352.800,316.800 352.260,316.800 351.600 C 316.800 350.940,316.980 350.400,317.200 350.400 C 317.420 350.400,317.600 349.860,317.600 349.200 C 317.600 348.540,317.780 348.000,318.000 348.000 C 318.220 348.000,318.400 347.460,318.400 346.800 C 318.400 346.140,318.580 345.600,318.800 345.600 C 319.020 345.600,319.200 344.880,319.200 344.000 C 319.200 343.120,319.380 342.400,319.600 342.400 C 319.820 342.400,320.000 341.961,320.000 341.424 C 320.000 340.887,320.180 340.336,320.400 340.200 C 320.620 340.064,320.800 339.524,320.800 339.000 C 320.800 338.476,320.980 337.936,321.200 337.800 C 321.420 337.664,321.600 337.124,321.600 336.600 C 321.600 336.076,321.780 335.536,322.000 335.400 C 322.220 335.264,322.400 334.533,322.400 333.776 C 322.400 333.019,322.580 332.400,322.800 332.400 C 323.020 332.400,323.200 331.860,323.200 331.200 C 323.200 330.540,323.360 330.000,323.556 330.000 C 323.752 330.000,324.013 329.415,324.136 328.700 C 324.891 324.312,325.352 322.400,325.655 322.400 C 325.845 322.400,326.000 321.860,326.000 321.200 C 326.000 320.540,326.180 320.000,326.400 320.000 C 326.620 320.000,326.800 319.280,326.800 318.400 C 326.800 317.520,326.980 316.800,327.200 316.800 C 327.420 316.800,327.600 316.260,327.600 315.600 C 327.600 314.940,327.780 314.400,328.000 314.400 C 328.220 314.400,328.400 313.860,328.400 313.200 C 328.400 312.540,328.580 312.000,328.800 312.000 C 329.020 312.000,329.200 311.280,329.200 310.400 C 329.200 309.520,329.380 308.800,329.600 308.800 C 329.820 308.800,330.000 308.350,330.000 307.800 C 330.000 307.250,330.180 306.800,330.400 306.800 C 330.620 306.800,330.800 306.080,330.800 305.200 C 330.800 304.320,330.980 303.600,331.200 303.600 C 331.420 303.600,331.600 303.071,331.600 302.424 C 331.600 301.777,331.780 301.136,332.000 301.000 C 332.220 300.864,332.400 300.133,332.400 299.376 C 332.400 298.619,332.580 298.000,332.800 298.000 C 333.020 298.000,333.200 297.280,333.200 296.400 C 333.200 295.520,333.380 294.800,333.600 294.800 C 333.820 294.800,334.000 294.080,334.000 293.200 C 334.000 292.320,334.180 291.600,334.400 291.600 C 334.620 291.600,334.800 290.970,334.800 290.200 C 334.800 289.430,334.980 288.800,335.200 288.800 C 335.420 288.800,335.600 288.080,335.600 287.200 C 335.600 286.320,335.780 285.600,336.000 285.600 C 336.220 285.600,336.400 284.880,336.400 284.000 C 336.400 283.120,336.580 282.400,336.800 282.400 C 337.020 282.400,337.200 281.500,337.200 280.400 C 337.200 279.300,337.380 278.400,337.600 278.400 C 337.820 278.400,338.000 277.492,338.000 276.382 C 338.000 274.259,336.794 272.400,335.418 272.400 C 335.078 272.400,334.800 272.220,334.800 272.000 C 334.800 271.151,333.350 271.719,332.306 272.976 " stroke="none" fill="#518efb" fill-rule="evenodd"></path><path id="path1" d="M197.543 27.244 C 197.244 27.433,196.235 27.591,195.300 27.594 C 194.365 27.597,193.600 27.780,193.600 28.000 C 193.600 28.220,193.060 28.400,192.400 28.400 C 191.740 28.400,191.200 28.580,191.200 28.800 C 191.200 29.020,190.880 29.200,190.488 29.200 C 190.097 29.200,189.517 29.560,189.200 30.000 C 188.883 30.440,188.343 30.800,188.000 30.800 C 187.657 30.800,187.117 31.160,186.800 31.600 C 186.483 32.040,185.984 32.400,185.692 32.400 C 185.400 32.400,183.919 33.660,182.400 35.200 C 180.881 36.740,179.442 38.000,179.202 38.000 C 178.961 38.000,177.436 39.350,175.813 41.000 C 174.189 42.650,172.659 44.000,172.411 44.000 C 172.164 44.000,170.719 45.260,169.200 46.800 C 167.681 48.340,166.242 49.600,166.002 49.600 C 165.762 49.600,164.141 51.040,162.400 52.800 C 160.659 54.560,159.131 56.000,159.004 56.000 C 158.877 56.000,158.170 56.585,157.433 57.300 C 155.077 59.586,153.233 61.154,152.339 61.633 C 151.130 62.280,145.417 68.109,144.545 69.586 C 144.150 70.254,143.686 70.800,143.514 70.800 C 143.341 70.800,143.200 71.160,143.200 71.600 C 143.200 72.040,143.036 72.400,142.835 72.400 C 142.634 72.400,142.349 73.120,142.200 74.000 C 142.051 74.880,141.766 75.600,141.565 75.600 C 141.364 75.600,141.200 76.050,141.200 76.600 C 141.200 77.150,141.020 77.600,140.800 77.600 C 140.580 77.600,140.400 78.140,140.400 78.800 C 140.400 79.460,140.220 80.000,140.000 80.000 C 139.772 80.000,139.600 81.192,139.600 82.776 C 139.600 84.303,139.420 85.664,139.200 85.800 C 138.980 85.936,138.800 86.847,138.800 87.824 C 138.800 88.801,138.980 89.600,139.200 89.600 C 139.428 89.600,139.600 90.792,139.600 92.376 C 139.600 93.903,139.780 95.264,140.000 95.400 C 140.220 95.536,140.400 96.177,140.400 96.824 C 140.400 97.471,140.580 98.000,140.800 98.000 C 141.020 98.000,141.200 98.360,141.200 98.800 C 141.200 99.557,140.933 99.600,136.200 99.600 C 133.133 99.600,131.200 99.755,131.200 100.000 C 131.200 100.233,129.867 100.400,128.000 100.400 C 126.133 100.400,124.800 100.567,124.800 100.800 C 124.800 101.020,124.080 101.200,123.200 101.200 C 122.320 101.200,121.600 101.380,121.600 101.600 C 121.600 101.820,120.880 102.000,120.000 102.000 C 119.120 102.000,118.400 102.180,118.400 102.400 C 118.400 102.620,118.040 102.800,117.600 102.800 C 117.160 102.800,116.800 102.980,116.800 103.200 C 116.800 103.420,116.440 103.600,116.000 103.600 C 115.560 103.600,115.200 103.780,115.200 104.000 C 115.200 104.220,114.840 104.400,114.400 104.400 C 113.960 104.400,113.600 104.580,113.600 104.800 C 113.600 105.020,113.240 105.200,112.800 105.200 C 112.360 105.200,112.000 105.380,112.000 105.600 C 112.000 105.820,111.680 106.000,111.288 106.000 C 110.897 106.000,110.317 106.360,110.000 106.800 C 109.683 107.240,109.193 107.600,108.912 107.600 C 108.630 107.600,108.400 107.752,108.400 107.937 C 108.400 108.122,107.743 108.617,106.939 109.037 C 105.359 109.862,100.400 114.532,100.400 115.195 C 100.400 115.418,100.220 115.600,100.000 115.600 C 99.780 115.600,99.600 115.830,99.600 116.112 C 99.600 116.393,99.240 116.883,98.800 117.200 C 98.360 117.517,98.000 118.025,98.000 118.328 C 98.000 118.631,97.460 119.383,96.800 120.000 C 96.140 120.617,95.600 121.398,95.600 121.737 C 95.600 122.076,95.420 122.464,95.200 122.600 C 94.980 122.736,94.800 123.272,94.800 123.790 C 94.800 124.309,94.665 124.793,94.500 124.867 C 93.834 125.163,92.404 128.730,92.157 130.709 C 92.013 131.869,91.738 132.915,91.547 133.033 C 91.356 133.151,91.200 134.857,91.200 136.824 C 91.200 138.941,91.037 140.400,90.800 140.400 C 90.569 140.400,90.400 141.667,90.400 143.400 C 90.400 145.050,90.561 146.400,90.758 146.400 C 90.954 146.400,91.212 147.795,91.330 149.500 C 91.603 153.438,92.150 156.310,92.740 156.900 C 92.993 157.153,93.200 157.864,93.200 158.480 C 93.200 159.096,93.380 159.600,93.600 159.600 C 93.820 159.600,94.000 159.780,94.000 160.000 C 94.000 160.220,93.291 160.400,92.424 160.400 C 91.557 160.400,90.736 160.580,90.600 160.800 C 90.464 161.020,89.463 161.200,88.376 161.200 C 87.289 161.200,86.400 161.380,86.400 161.600 C 86.400 161.820,85.770 162.000,85.000 162.000 C 84.230 162.000,83.600 162.180,83.600 162.400 C 83.600 162.620,83.071 162.800,82.424 162.800 C 81.777 162.800,81.136 162.980,81.000 163.200 C 80.864 163.420,80.403 163.600,79.976 163.600 C 79.549 163.600,79.200 163.780,79.200 164.000 C 79.200 164.220,78.840 164.400,78.400 164.400 C 77.960 164.400,77.600 164.536,77.600 164.702 C 77.600 164.869,77.015 165.260,76.300 165.572 C 75.585 165.884,74.709 166.468,74.353 166.870 C 73.997 167.271,73.488 167.600,73.222 167.600 C 72.955 167.600,72.046 168.320,71.200 169.200 C 70.354 170.080,69.460 170.800,69.212 170.800 C 68.311 170.800,61.222 178.505,61.207 179.500 C 61.203 179.775,61.053 180.000,60.874 180.000 C 60.578 180.000,59.089 182.632,59.026 183.267 C 59.012 183.413,58.865 183.668,58.700 183.833 C 58.535 183.998,58.400 184.463,58.400 184.867 C 58.400 185.270,58.220 185.600,58.000 185.600 C 57.780 185.600,57.600 185.960,57.600 186.400 C 57.600 186.840,57.420 187.200,57.200 187.200 C 56.980 187.200,56.800 187.740,56.800 188.400 C 56.800 189.060,56.620 189.600,56.400 189.600 C 56.180 189.600,56.000 190.219,56.000 190.976 C 56.000 191.733,55.820 192.464,55.600 192.600 C 55.380 192.736,55.200 193.456,55.200 194.200 C 55.200 194.944,55.020 195.664,54.800 195.800 C 54.257 196.135,54.257 211.200,54.800 211.200 C 55.020 211.200,55.200 211.920,55.200 212.800 C 55.200 213.680,55.380 214.400,55.600 214.400 C 55.820 214.400,56.000 214.940,56.000 215.600 C 56.000 216.260,56.180 216.800,56.400 216.800 C 56.620 216.800,56.800 217.340,56.800 218.000 C 56.800 218.660,56.980 219.200,57.200 219.200 C 57.420 219.200,57.600 219.560,57.600 220.000 C 57.600 220.440,57.780 220.800,58.000 220.800 C 58.220 220.800,58.400 221.100,58.400 221.466 C 58.400 222.364,59.673 225.200,60.077 225.200 C 60.255 225.200,60.400 225.436,60.400 225.725 C 60.400 226.013,60.760 226.636,61.200 227.108 C 61.640 227.580,62.000 228.156,62.000 228.387 C 62.000 228.936,71.864 238.800,72.413 238.800 C 72.644 238.800,73.229 239.168,73.711 239.618 C 74.826 240.657,76.706 241.600,77.661 241.600 C 78.068 241.600,78.400 241.780,78.400 242.000 C 78.400 242.220,78.760 242.400,79.200 242.400 C 79.640 242.400,80.000 242.580,80.000 242.800 C 80.000 243.020,80.360 243.200,80.800 243.200 C 81.240 243.200,81.600 243.380,81.600 243.600 C 81.600 243.820,82.125 244.000,82.767 244.000 C 83.408 244.000,84.008 244.225,84.100 244.500 C 84.233 244.898,107.769 245.000,200.000 245.000 C 292.231 245.000,315.767 244.898,315.900 244.500 C 315.992 244.225,316.682 244.000,317.433 244.000 C 318.185 244.000,318.800 243.820,318.800 243.600 C 318.800 243.380,319.250 243.200,319.800 243.200 C 320.350 243.200,320.800 243.020,320.800 242.800 C 320.800 242.580,321.160 242.400,321.600 242.400 C 322.040 242.400,322.400 242.243,322.400 242.050 C 322.400 241.857,322.895 241.596,323.500 241.468 C 324.105 241.341,325.123 240.778,325.762 240.218 C 326.401 239.658,327.068 239.200,327.244 239.200 C 327.420 239.200,328.014 238.750,328.564 238.200 C 329.114 237.650,329.754 237.200,329.988 237.200 C 330.597 237.200,337.200 230.512,337.200 229.894 C 337.200 229.609,337.560 229.117,338.000 228.800 C 338.440 228.483,338.800 227.943,338.800 227.600 C 338.800 227.257,339.160 226.717,339.600 226.400 C 340.040 226.083,340.400 225.503,340.400 225.112 C 340.400 224.720,340.572 224.400,340.782 224.400 C 340.992 224.400,341.282 223.770,341.426 223.000 C 341.571 222.230,341.849 221.600,342.045 221.600 C 342.240 221.600,342.400 221.240,342.400 220.800 C 342.400 220.360,342.580 220.000,342.800 220.000 C 343.020 220.000,343.200 219.640,343.200 219.200 C 343.200 218.760,343.380 218.400,343.600 218.400 C 343.820 218.400,344.000 217.871,344.000 217.224 C 344.000 216.577,344.180 215.936,344.400 215.800 C 344.620 215.664,344.800 214.933,344.800 214.176 C 344.800 213.419,344.980 212.800,345.200 212.800 C 345.433 212.800,345.600 211.467,345.600 209.600 C 345.600 207.733,345.767 206.400,346.000 206.400 C 346.228 206.400,346.400 205.208,346.400 203.624 C 346.400 202.097,346.220 200.736,346.000 200.600 C 345.780 200.464,345.600 198.923,345.600 197.176 C 345.600 195.325,345.433 194.000,345.200 194.000 C 344.980 194.000,344.800 193.370,344.800 192.600 C 344.800 191.830,344.620 191.200,344.400 191.200 C 344.180 191.200,344.000 190.480,344.000 189.600 C 344.000 188.720,343.820 188.000,343.600 188.000 C 343.380 188.000,343.200 187.640,343.200 187.200 C 343.200 186.760,343.020 186.400,342.800 186.400 C 342.580 186.400,342.400 186.040,342.400 185.600 C 342.400 185.160,342.220 184.800,342.000 184.800 C 341.780 184.800,341.600 184.451,341.600 184.024 C 341.600 183.597,341.417 183.134,341.193 182.996 C 340.970 182.858,340.874 182.604,340.980 182.433 C 341.086 182.261,340.843 181.768,340.440 181.335 C 340.038 180.903,339.490 180.142,339.223 179.643 C 338.193 177.718,330.785 170.000,329.968 170.000 C 329.731 170.000,328.846 169.280,328.000 168.400 C 327.154 167.520,326.179 166.800,325.831 166.800 C 325.484 166.800,325.199 166.665,325.199 166.500 C 325.198 166.335,324.208 165.750,323.000 165.200 C 321.792 164.650,320.802 164.065,320.801 163.900 C 320.801 163.735,320.440 163.600,320.000 163.600 C 319.560 163.600,319.200 163.420,319.200 163.200 C 319.200 162.980,318.660 162.800,318.000 162.800 C 317.340 162.800,316.800 162.620,316.800 162.400 C 316.800 162.180,316.080 162.000,315.200 162.000 C 314.320 162.000,313.600 161.820,313.600 161.600 C 313.600 161.380,312.700 161.200,311.600 161.200 C 310.500 161.200,309.600 161.057,309.600 160.882 C 309.600 160.707,308.925 160.518,308.101 160.463 C 306.736 160.371,305.145 159.600,306.320 159.600 C 306.584 159.600,306.800 159.240,306.800 158.800 C 306.800 158.360,306.950 158.000,307.133 158.000 C 307.317 158.000,307.489 157.775,307.517 157.500 C 307.544 157.225,307.762 156.190,308.001 155.200 C 308.239 154.210,308.539 152.545,308.668 151.500 C 308.797 150.455,309.059 149.600,309.251 149.600 C 309.717 149.600,309.702 137.466,309.235 136.980 C 309.035 136.771,308.784 135.610,308.677 134.400 C 308.345 130.611,307.003 125.600,306.320 125.600 C 306.144 125.600,306.000 125.240,306.000 124.800 C 306.000 124.360,305.820 124.000,305.600 124.000 C 305.380 124.000,305.200 123.640,305.200 123.200 C 305.200 122.760,305.020 122.400,304.800 122.400 C 304.580 122.400,304.400 122.040,304.400 121.600 C 304.400 121.160,304.220 120.800,304.000 120.800 C 303.780 120.800,303.600 120.557,303.600 120.259 C 303.600 119.962,303.060 119.154,302.400 118.463 C 301.740 117.772,301.200 117.019,301.200 116.788 C 301.200 116.558,299.589 114.801,297.621 112.885 C 293.285 108.663,292.973 108.400,292.313 108.400 C 292.027 108.400,291.568 108.040,291.293 107.600 C 291.018 107.160,290.564 106.800,290.285 106.800 C 290.005 106.800,289.517 106.440,289.200 106.000 C 288.883 105.560,288.303 105.200,287.912 105.200 C 287.520 105.200,287.200 105.020,287.200 104.800 C 287.200 104.580,286.840 104.400,286.400 104.400 C 285.960 104.400,285.600 104.220,285.600 104.000 C 285.600 103.780,285.240 103.600,284.800 103.600 C 284.360 103.600,284.000 103.420,284.000 103.200 C 284.000 102.980,283.460 102.800,282.800 102.800 C 282.140 102.800,281.600 102.620,281.600 102.400 C 281.600 102.180,281.060 102.000,280.400 102.000 C 279.740 102.000,279.200 101.820,279.200 101.600 C 279.200 101.380,278.480 101.200,277.600 101.200 C 276.720 101.200,276.000 101.020,276.000 100.800 C 276.000 100.567,274.667 100.400,272.800 100.400 C 270.933 100.400,269.600 100.233,269.600 100.000 C 269.600 99.753,267.533 99.600,264.200 99.600 C 260.867 99.600,258.800 99.447,258.800 99.200 C 258.800 98.980,258.980 98.800,259.200 98.800 C 259.420 98.800,259.600 98.260,259.600 97.600 C 259.600 96.940,259.780 96.400,260.000 96.400 C 260.220 96.400,260.400 95.500,260.400 94.400 C 260.400 93.300,260.580 92.400,260.800 92.400 C 261.357 92.400,261.316 82.626,260.751 80.828 C 260.504 80.043,260.144 79.087,259.951 78.705 C 259.758 78.323,259.600 77.648,259.600 77.205 C 259.600 76.762,259.420 76.400,259.200 76.400 C 258.980 76.400,258.800 76.160,258.800 75.866 C 258.800 74.496,255.823 69.376,253.986 67.586 C 252.894 66.522,252.000 65.447,252.000 65.197 C 252.000 64.627,250.996 63.600,250.438 63.600 C 250.208 63.600,248.821 62.430,247.355 61.000 C 245.889 59.570,244.400 58.395,244.045 58.388 C 243.690 58.381,242.950 57.833,242.400 57.170 C 240.339 54.683,238.448 52.800,238.012 52.800 C 237.764 52.800,236.319 51.540,234.800 50.000 C 233.281 48.460,231.856 47.200,231.634 47.200 C 231.411 47.200,230.012 46.030,228.524 44.600 C 227.037 43.170,225.672 42.000,225.491 42.000 C 225.310 42.000,223.919 40.740,222.400 39.200 C 220.881 37.660,219.440 36.400,219.197 36.400 C 218.954 36.400,217.696 35.320,216.400 34.000 C 215.104 32.680,213.804 31.600,213.510 31.600 C 213.217 31.600,212.717 31.240,212.400 30.800 C 212.083 30.360,211.503 30.000,211.112 30.000 C 210.720 30.000,210.400 29.820,210.400 29.600 C 210.400 29.380,210.040 29.200,209.600 29.200 C 209.160 29.200,208.800 29.020,208.800 28.800 C 208.800 28.580,208.361 28.400,207.824 28.400 C 207.287 28.400,206.736 28.220,206.600 28.000 C 206.464 27.780,205.564 27.600,204.600 27.600 C 203.636 27.600,202.750 27.443,202.631 27.250 C 202.352 26.798,198.254 26.793,197.543 27.244 M196.696 65.414 C 198.330 66.097,207.689 74.985,209.098 77.193 C 212.221 82.086,206.990 88.546,201.976 85.988 C 200.229 85.096,190.307 75.267,189.360 73.489 C 188.117 71.155,190.065 67.244,193.257 65.664 C 195.330 64.637,194.909 64.668,196.696 65.414 M174.300 108.676 C 178.683 111.929,177.927 114.599,170.487 122.152 C 163.011 129.740,160.718 130.463,157.037 126.388 C 153.689 122.683,154.223 121.244,161.734 113.734 C 169.206 106.261,170.400 105.781,174.300 108.676 M242.461 107.210 C 245.775 108.131,248.277 112.652,246.982 115.381 C 245.857 117.753,235.988 127.386,233.845 128.204 C 228.856 130.109,223.731 124.160,226.432 119.600 C 227.556 117.704,237.502 108.016,239.000 107.358 C 240.473 106.711,240.639 106.704,242.461 107.210 M264.854 145.448 C 267.762 147.442,276.202 156.501,276.696 158.159 C 277.695 161.506,274.317 165.600,270.558 165.600 L 268.315 165.600 262.719 160.100 C 255.245 152.753,254.294 150.723,256.741 147.344 C 259.229 143.911,261.752 143.321,264.854 145.448 M197.690 155.996 C 200.013 157.409,209.374 166.968,210.176 168.747 C 212.288 173.430,206.009 178.715,201.280 176.233 C 199.736 175.423,190.236 165.663,189.407 164.035 C 187.045 159.394,193.298 153.325,197.690 155.996 M139.904 160.798 C 143.713 163.121,143.647 170.062,139.800 171.692 C 138.050 172.433,121.705 172.406,120.311 171.660 C 116.783 169.771,116.808 162.913,120.350 160.859 C 122.512 159.606,137.870 159.558,139.904 160.798 M110.747 184.689 C 115.398 188.377,114.883 190.769,107.910 197.861 C 100.068 205.838,96.737 206.679,93.014 201.622 C 90.606 198.351,91.607 196.390,99.716 188.498 C 105.747 182.629,107.421 182.051,110.747 184.689 M303.733 183.575 C 306.958 184.801,309.036 188.903,307.860 191.718 C 306.871 194.085,296.878 203.707,294.846 204.249 C 289.423 205.697,284.783 200.313,287.547 195.779 C 288.582 194.083,298.123 184.754,299.698 183.900 C 301.145 183.114,302.282 183.023,303.733 183.575 M165.461 204.029 C 171.600 207.002,170.979 210.429,162.866 218.340 C 156.049 224.987,154.138 225.725,150.644 223.060 C 146.232 219.696,146.773 217.620,153.978 210.263 C 161.046 203.044,162.168 202.435,165.461 204.029 M249.040 204.351 C 251.747 206.348,259.953 214.989,260.590 216.514 C 262.283 220.566,257.543 226.084,253.493 224.777 C 251.786 224.226,243.630 216.751,240.660 213.016 C 236.505 207.790,243.666 200.386,249.040 204.351 " stroke="none" fill="#fb6cc4" fill-rule="evenodd"></path><path id="path2" d="M193.257 65.664 C 190.065 67.244,188.117 71.155,189.360 73.489 C 190.307 75.267,200.229 85.096,201.976 85.988 C 206.990 88.546,212.221 82.086,209.098 77.193 C 207.689 74.985,198.330 66.097,196.696 65.414 C 194.909 64.668,195.330 64.637,193.257 65.664 M158.185 117.300 L 156.200 119.400 158.300 117.415 C 159.455 116.323,160.400 115.378,160.400 115.315 C 160.400 115.017,160.029 115.349,158.185 117.300 M260.617 144.284 C 258.275 144.902,255.600 148.096,255.600 150.276 C 255.600 152.578,256.920 154.399,262.719 160.100 L 268.315 165.600 270.558 165.600 C 272.648 165.600,272.911 165.489,274.435 163.965 C 278.413 159.987,278.016 158.426,271.270 151.523 C 264.844 144.947,262.960 143.666,260.617 144.284 M188.901 161.800 C 188.905 162.680,188.987 162.993,189.083 162.495 C 189.179 161.998,189.175 161.278,189.075 160.895 C 188.975 160.513,188.896 160.920,188.901 161.800 M195.200 170.533 C 197.950 173.349,200.560 175.845,201.000 176.081 C 201.440 176.316,201.710 176.439,201.600 176.354 C 201.490 176.269,198.880 173.772,195.800 170.806 L 190.200 165.413 195.200 170.533 M106.500 183.476 C 106.885 183.576,107.515 183.576,107.900 183.476 C 108.285 183.375,107.970 183.293,107.200 183.293 C 106.430 183.293,106.115 183.375,106.500 183.476 M111.397 185.601 C 113.293 187.818,113.320 187.842,112.886 187.000 C 112.659 186.560,111.962 185.751,111.337 185.201 L 110.200 184.203 111.397 185.601 M98.394 189.900 L 93.400 195.000 98.500 190.006 C 101.305 187.259,103.600 184.964,103.600 184.906 C 103.600 184.619,103.033 185.163,98.394 189.900 M107.194 198.300 L 102.200 203.400 107.300 198.406 C 110.105 195.659,112.400 193.364,112.400 193.306 C 112.400 193.019,111.833 193.563,107.194 198.300 M287.600 201.725 C 287.600 201.794,288.185 202.379,288.900 203.025 L 290.200 204.200 289.025 202.900 C 287.930 201.688,287.600 201.416,287.600 201.725 M160.800 203.980 C 158.902 204.990,148.684 215.480,148.035 217.086 C 146.481 220.926,152.761 225.892,156.634 223.884 C 158.214 223.065,167.726 213.746,168.765 212.000 C 171.446 207.491,165.484 201.488,160.800 203.980 M82.400 245.300 C 82.400 245.465,81.860 245.600,81.200 245.600 C 80.540 245.600,80.000 245.780,80.000 246.000 C 80.000 246.220,79.584 246.400,79.075 246.400 C 78.567 246.400,77.764 246.760,77.292 247.200 C 76.820 247.640,76.333 248.000,76.210 248.000 C 75.690 248.000,70.000 254.041,70.000 254.594 C 70.000 254.927,69.820 255.200,69.600 255.200 C 69.380 255.200,69.200 255.560,69.200 256.000 C 69.200 256.440,69.020 256.800,68.800 256.800 C 68.580 256.800,68.400 257.160,68.400 257.600 C 68.400 258.040,68.220 258.400,68.000 258.400 C 67.780 258.400,67.600 258.850,67.600 259.400 C 67.600 259.950,67.420 260.400,67.200 260.400 C 66.980 260.400,66.800 260.929,66.800 261.576 C 66.800 262.223,66.620 262.864,66.400 263.000 C 66.180 263.136,66.000 264.486,66.000 266.000 C 66.000 267.514,66.180 268.864,66.400 269.000 C 66.620 269.136,66.800 269.914,66.800 270.729 C 66.800 271.880,67.000 272.298,67.698 272.605 C 68.574 272.990,70.183 275.577,70.468 277.059 C 70.582 277.649,70.795 277.503,71.514 276.339 C 75.269 270.264,78.957 270.510,84.399 277.200 C 85.384 278.410,86.288 279.490,86.409 279.600 C 86.530 279.710,87.759 281.195,89.140 282.900 C 92.368 286.885,92.166 286.969,95.419 280.300 C 98.929 273.106,100.016 272.225,105.336 272.264 C 110.339 272.300,112.202 273.339,119.600 280.224 C 128.387 288.401,128.925 288.456,134.099 281.707 C 139.915 274.118,142.382 272.415,148.019 272.093 C 151.822 271.876,155.243 272.617,157.391 274.122 C 158.505 274.903,165.943 281.068,166.400 281.590 C 167.301 282.618,171.259 285.642,172.144 285.979 C 175.968 287.433,177.095 286.841,185.128 279.163 C 191.409 273.159,193.336 272.227,199.400 272.258 C 206.997 272.297,208.813 273.192,216.060 280.466 C 224.566 289.003,226.722 288.702,238.726 277.304 C 241.426 274.741,248.779 272.012,253.000 272.007 C 257.666 272.001,259.028 272.973,264.872 280.473 C 271.524 289.012,271.678 289.022,279.200 281.406 C 287.660 272.840,292.389 270.668,298.286 272.640 C 300.986 273.543,304.800 278.454,304.800 281.027 C 304.800 281.773,307.372 286.400,307.787 286.400 C 308.314 286.400,310.295 284.365,314.000 280.018 C 319.685 273.348,320.862 272.384,323.280 272.419 C 325.550 272.452,327.300 273.599,328.367 275.750 L 329.333 277.700 330.091 275.750 C 330.513 274.664,331.548 273.156,332.425 272.346 L 334.000 270.892 334.000 266.446 C 334.000 263.749,333.843 262.000,333.600 262.000 C 333.380 262.000,333.200 261.370,333.200 260.600 C 333.200 259.830,333.020 259.200,332.800 259.200 C 332.580 259.200,332.400 258.840,332.400 258.400 C 332.400 257.960,332.220 257.600,332.000 257.600 C 331.780 257.600,331.600 257.280,331.600 256.888 C 331.600 256.497,331.240 255.917,330.800 255.600 C 330.360 255.283,330.000 254.779,330.000 254.480 C 330.000 254.182,329.280 253.246,328.400 252.400 C 327.520 251.554,326.800 250.609,326.800 250.299 C 326.800 249.989,326.308 249.480,325.706 249.168 C 324.620 248.604,323.597 247.861,322.584 246.900 C 322.294 246.625,321.594 246.400,321.029 246.400 C 320.463 246.400,320.000 246.220,320.000 246.000 C 320.000 245.780,319.460 245.600,318.800 245.600 C 318.140 245.600,317.600 245.465,317.600 245.300 C 317.600 245.135,264.680 245.000,200.000 245.000 C 135.320 245.000,82.400 245.135,82.400 245.300 " stroke="none" fill="#f9bdb3" fill-rule="evenodd"></path><path id="path3" d="M168.089 108.070 C 165.939 109.112,156.897 118.576,155.864 120.865 C 153.865 125.296,159.529 130.033,164.120 127.769 C 165.873 126.904,175.556 116.923,176.280 115.235 C 178.226 110.695,172.681 105.843,168.089 108.070 M193.376 155.958 C 190.820 157.114,189.200 159.458,189.200 161.998 L 189.200 164.081 194.500 169.479 C 202.161 177.282,204.167 178.198,207.694 175.508 C 212.233 172.046,211.361 168.972,203.769 161.664 C 197.212 155.353,196.083 154.733,193.376 155.958 M300.563 183.641 C 299.041 184.071,289.539 193.050,287.931 195.578 C 284.816 200.477,289.928 206.112,295.410 203.822 C 297.003 203.156,304.832 195.778,306.850 193.040 C 309.970 188.808,305.568 182.228,300.563 183.641 M99.519 189.100 C 92.748 195.756,92.267 196.388,92.267 198.630 C 92.267 202.162,96.517 205.402,99.777 204.357 C 101.902 203.675,112.553 193.361,113.220 191.339 C 114.321 188.002,110.914 183.600,107.231 183.600 L 105.115 183.600 99.519 189.100 " stroke="none" fill="#fcb22f" fill-rule="evenodd"></path><path id="path4" d="M239.000 107.358 C 237.502 108.016,227.556 117.704,226.432 119.600 C 223.731 124.160,228.856 130.109,233.845 128.204 C 235.988 127.386,245.857 117.753,246.982 115.381 C 248.979 111.174,243.303 105.469,239.000 107.358 M243.473 108.262 C 248.809 110.794,247.892 114.856,240.325 122.208 C 233.624 128.718,231.395 129.514,228.145 126.558 C 224.486 123.231,225.397 120.671,232.855 113.320 C 238.849 107.411,240.262 106.738,243.473 108.262 M120.350 160.859 C 116.808 162.913,116.783 169.771,120.311 171.660 C 121.705 172.406,138.050 172.433,139.800 171.692 C 143.647 170.062,143.713 163.121,139.904 160.798 C 137.870 159.558,122.512 159.606,120.350 160.859 M139.568 161.230 C 142.885 163.094,143.105 169.293,139.918 171.062 C 138.694 171.741,122.102 171.812,120.636 171.144 C 117.258 169.604,117.331 163.242,120.750 161.259 C 122.950 159.984,137.311 159.962,139.568 161.230 M242.946 203.967 C 237.105 207.529,237.905 210.687,246.860 219.415 C 253.003 225.403,254.177 225.948,257.080 224.153 C 262.885 220.564,262.506 217.626,255.290 210.278 C 248.069 202.924,246.213 201.976,242.946 203.967 M247.812 204.232 C 250.956 205.725,260.741 216.624,260.789 218.688 C 260.825 220.276,258.742 222.805,256.421 223.989 L 254.693 224.871 252.965 223.982 C 250.586 222.759,240.014 211.999,239.958 210.744 C 239.843 208.199,240.120 207.342,241.532 205.861 C 243.784 203.500,245.390 203.083,247.812 204.232 M74.010 273.439 C 73.134 274.230,72.019 275.522,71.532 276.309 C 70.965 277.227,70.590 277.537,70.487 277.171 C 69.861 274.934,67.600 271.435,67.600 272.702 C 67.600 272.922,67.850 273.310,68.156 273.563 C 68.462 273.817,69.113 275.099,69.605 276.412 C 70.640 279.182,70.858 279.292,71.594 277.416 C 72.561 274.951,75.355 272.600,77.317 272.601 C 79.614 272.601,80.903 273.612,84.854 278.512 C 86.667 280.761,88.261 282.690,88.395 282.800 C 88.529 282.910,89.047 283.585,89.547 284.301 C 91.400 286.954,93.039 286.953,94.174 284.297 C 98.500 274.172,99.824 272.800,105.266 272.800 C 110.165 272.800,111.616 273.621,119.410 280.800 C 125.734 286.625,125.994 286.800,128.341 286.800 C 130.752 286.800,130.973 286.629,134.479 282.053 C 140.519 274.171,142.771 272.706,148.846 272.708 C 155.275 272.710,154.874 272.482,167.538 283.339 C 171.201 286.480,171.874 286.797,174.886 286.799 C 177.969 286.800,177.892 286.850,184.257 280.677 C 188.515 276.548,191.657 274.096,193.145 273.741 C 193.725 273.603,194.412 273.323,194.671 273.120 C 195.261 272.657,203.713 272.927,205.606 273.470 C 208.733 274.367,210.444 275.604,215.842 280.871 C 224.502 289.321,225.514 289.350,234.766 281.418 C 242.634 274.673,246.475 272.823,252.895 272.684 C 256.685 272.602,259.131 273.651,260.868 276.102 C 261.374 276.816,262.007 277.670,262.275 278.000 C 262.542 278.330,264.201 280.434,265.962 282.676 C 271.377 289.572,271.607 289.545,280.400 281.007 C 285.326 276.224,288.618 273.600,289.692 273.600 C 289.993 273.600,290.429 273.411,290.660 273.180 C 290.891 272.949,292.502 272.749,294.240 272.737 C 299.314 272.700,301.106 273.843,302.966 278.298 C 307.223 288.498,307.250 288.510,312.467 282.500 C 318.018 276.105,320.869 273.298,322.136 272.980 C 324.321 272.432,328.000 274.439,328.000 276.179 C 328.000 276.495,328.180 276.864,328.400 277.000 C 328.620 277.136,328.800 277.597,328.800 278.024 C 328.800 279.474,329.486 278.807,330.368 276.500 C 330.851 275.235,331.731 273.682,332.323 273.048 C 333.200 272.110,333.246 271.976,332.567 272.326 C 331.403 272.928,330.975 273.521,330.098 275.753 L 329.333 277.700 328.367 275.750 C 327.300 273.599,325.550 272.452,323.280 272.419 C 320.862 272.384,319.685 273.348,314.000 280.018 C 310.295 284.365,308.314 286.400,307.787 286.400 C 307.372 286.400,304.800 281.773,304.800 281.027 C 304.800 278.454,300.986 273.543,298.286 272.640 C 292.389 270.668,287.660 272.840,279.200 281.406 C 271.678 289.022,271.524 289.012,264.872 280.473 C 259.028 272.973,257.666 272.001,253.000 272.007 C 248.779 272.012,241.426 274.741,238.726 277.304 C 226.722 288.702,224.566 289.003,216.060 280.466 C 208.813 273.192,206.997 272.297,199.400 272.258 C 193.336 272.227,191.409 273.159,185.128 279.163 C 177.095 286.841,175.968 287.433,172.144 285.979 C 171.259 285.642,167.301 282.618,166.400 281.590 C 165.943 281.068,158.505 274.903,157.391 274.122 C 155.243 272.617,151.822 271.876,148.019 272.093 C 142.382 272.415,139.915 274.118,134.099 281.707 C 128.925 288.456,128.387 288.401,119.600 280.224 C 112.202 273.339,110.339 272.300,105.336 272.264 C 100.016 272.225,98.929 273.106,95.419 280.300 C 92.166 286.969,92.368 286.885,89.140 282.900 C 87.759 281.195,86.530 279.710,86.409 279.600 C 86.288 279.490,85.384 278.410,84.399 277.200 C 79.828 271.582,77.142 270.609,74.010 273.439 " stroke="none" fill="#94a4dc" fill-rule="evenodd"></path></g></svg>